<?xml version="1.0" standalone="no"?>
<!DOCTYPE svg PUBLIC "-//W3C//DTD SVG 20010904//EN"
 "http://www.w3.org/TR/2001/REC-SVG-20010904/DTD/svg10.dtd">
<svg version="1.0" xmlns="http://www.w3.org/2000/svg"
 width="300.000000pt" height="300.000000pt" viewBox="0 0 300.000000 300.000000"
 preserveAspectRatio="xMidYMid meet">
<metadata>
Created by potrace 1.14, written by Peter Selinger 2001-2017
</metadata>
<g transform="translate(0.000000,300.000000) scale(0.100000,-0.100000)"
fill="#000000" stroke="none">
<path d="M0 1500 l0 -1500 1500 0 1500 0 0 1500 0 1500 -1500 0 -1500 0 0
-1500z m1732 754 c114 -38 146 -75 174 -210 13 -64 15 -111 10 -248 -4 -94 -9
-172 -12 -175 -3 -3 -10 1 -15 9 -15 23 1 -57 22 -113 11 -26 19 -55 18 -65 0
-9 -5 -1 -11 18 l-10 35 -11 -25 c-6 -14 -16 -28 -22 -32 -5 -4 -11 -44 -12
-89 0 -45 -6 -86 -12 -92 -6 -6 -11 -19 -11 -28 0 -21 -30 -48 -31 -28 0 10
-2 10 -5 2 -3 -7 5 -26 17 -43 20 -26 21 -34 11 -50 -20 -32 -15 -118 8 -147
33 -43 22 -50 -15 -10 -25 26 -39 54 -47 90 -6 29 -17 59 -23 67 -6 8 -21 35
-32 60 -21 47 -25 146 -9 220 l7 35 -15 -33 c-19 -41 -46 -70 -46 -50 0 8 7
23 15 34 8 10 14 37 13 59 -1 32 -2 34 -5 11 -3 -16 -11 -39 -19 -51 -8 -12
-16 -41 -19 -63 -3 -37 0 -44 26 -62 16 -12 29 -26 29 -33 0 -8 -3 -8 -12 1
-19 19 -33 14 -15 -6 24 -26 21 -36 -3 -12 -11 11 -19 24 -17 29 1 5 -18 24
-43 42 -33 23 -40 26 -25 9 14 -16 16 -24 7 -27 -6 -3 -10 -8 -7 -12 2 -5 0
-28 -5 -52 l-9 -44 2 42 c1 24 -2 44 -8 47 -8 3 -9 -13 -4 -51 5 -34 3 -66 -3
-82 -20 -48 -26 -116 -16 -173 6 -32 14 -55 19 -52 14 8 10 -80 -6 -125 -11
-31 -12 -54 -5 -98 8 -46 7 -60 -5 -72 -12 -12 -15 -11 -21 13 -3 14 -4 36 -1
47 4 16 3 18 -9 8 -8 -6 -14 -21 -14 -33 -1 -23 -27 -63 -36 -54 -3 4 -1 15 5
26 18 33 12 49 -7 24 l-18 -23 -12 26 c-14 31 -16 46 -2 25 6 -10 9 11 8 68
-1 60 -5 82 -15 82 -8 0 -13 -12 -13 -32 0 -61 -12 -104 -31 -116 -17 -11 -18
-9 -12 35 4 34 3 44 -5 39 -17 -10 -15 20 2 37 16 15 28 125 19 169 -6 31 -23
28 -23 -3 0 -12 -4 -17 -11 -14 -7 5 -10 -9 -9 -41 2 -66 2 -70 -9 -59 -12 14
-24 88 -13 81 5 -3 6 15 1 45 -10 61 4 99 32 92 17 -5 19 1 19 66 0 39 6 92
13 118 10 37 10 47 0 50 -7 3 -13 11 -13 19 0 9 4 13 8 10 5 -3 10 27 11 67 1
40 6 87 12 105 13 38 4 97 -18 126 -15 20 -15 20 -10 -7 3 -22 1 -27 -10 -23
-11 4 -13 1 -8 -15 9 -28 -2 -69 -19 -69 -9 0 -12 -7 -9 -20 5 -19 1 -21 -34
-20 -5 1 -7 17 -5 38 2 31 1 34 -9 18 -9 -15 -13 -16 -20 -5 -6 10 -9 3 -9
-19 0 -30 -1 -32 -16 -18 -8 9 -21 16 -27 16 -8 0 -7 -3 2 -9 7 -5 15 -26 17
-47 2 -36 1 -37 -12 -20 -14 20 -16 18 -18 -18 -1 -11 -8 -21 -16 -24 -13 -4
-13 -3 -2 10 9 11 10 18 2 23 -14 9 -13 42 3 52 6 4 12 18 13 30 0 12 -3 20
-8 17 -4 -3 -9 5 -9 18 -1 13 -5 6 -9 -17 -7 -38 -7 -38 -9 18 -1 61 -21 81
-21 21 0 -19 -4 -33 -9 -30 -9 6 -12 94 -3 110 2 4 6 32 9 62 3 39 0 54 -9 54
-18 1 -51 29 -73 63 -13 21 -18 49 -19 112 -1 47 2 85 5 85 4 0 12 20 18 44 6
25 20 50 33 59 13 8 36 26 51 41 53 50 212 115 285 117 20 1 48 5 62 9 55 18
163 11 242 -16z m-625 -555 c1 -22 1 -23 -4 -1 -2 12 -9 20 -14 17 -5 -4 -9
-1 -9 5 0 23 25 3 27 -21z m283 -200 c-12 -28 -40 -41 -40 -18 0 5 4 8 8 5 5
-3 15 11 23 30 7 20 15 31 17 24 2 -6 -1 -24 -8 -41z m-303 -1 c-3 -7 -5 -2
-5 12 0 14 2 19 5 13 2 -7 2 -19 0 -25z m23 -28 c0 -5 -2 -10 -4 -10 -3 0 -8
5 -11 10 -3 6 -1 10 4 10 6 0 11 -4 11 -10z m261 -123 c-8 -8 -11 -5 -12 9 -4
55 14 93 19 40 2 -21 -1 -43 -7 -49z m-70 -114 c-12 -20 -14 -14 -5 12 4 9 9
14 11 11 3 -2 0 -13 -6 -23z m423 -106 c25 -61 49 -192 51 -283 1 -50 6 -98
10 -105 5 -7 8 -29 7 -49 -2 -20 4 -66 12 -103 10 -49 10 -67 2 -64 -6 2 -16
28 -22 58 -15 73 -22 90 -23 52 -2 -55 -22 -134 -37 -140 -9 -3 -14 -20 -14
-44 0 -40 -16 -52 -27 -21 -4 9 -15 23 -26 31 -15 10 -17 21 -12 52 16 91 -23
243 -47 180 -4 -12 -5 -28 -1 -37 4 -12 1 -15 -12 -13 -15 3 -19 15 -22 62 -3
60 2 71 17 35 7 -18 9 -8 11 42 5 101 1 126 -24 188 -18 44 -21 65 -14 92 12
53 39 142 50 170 l10 26 49 -49 c26 -26 54 -63 62 -80z m195 22 c12 -32 19
-64 16 -69 -9 -14 -45 54 -55 102 -11 58 14 37 39 -33z m-60 -74 c14 -39 31
-38 31 2 0 53 12 13 14 -48 2 -49 0 -59 -8 -44 -6 10 -19 27 -29 37 -17 18
-37 60 -37 79 0 22 17 6 29 -26z m-504 6 c-3 -6 -11 -11 -16 -11 -5 0 -4 6 3
14 14 16 24 13 13 -3z m597 -73 c-17 -17 -24 -4 -16 28 7 28 7 28 17 6 7 -16
7 -26 -1 -34z m-54 -86 c-2 -11 3 -26 10 -35 17 -20 12 -52 -8 -52 -19 0 -33
86 -16 97 16 11 18 10 14 -10z m-526 -20 c-7 -2 -12 -13 -13 -25 0 -13 -3 -16
-6 -9 -3 8 1 25 8 39 8 16 15 20 18 12 2 -7 -1 -15 -7 -17z m455 -44 c-3 -8
-6 -5 -6 6 -1 11 2 17 5 13 3 -3 4 -12 1 -19z m193 -60 c0 -18 -5 -28 -15 -28
-9 0 -15 -9 -15 -21 0 -11 -8 -28 -17 -37 -16 -16 -16 -16 -8 3 4 11 15 46 24
77 15 58 31 60 31 6z m-193 10 c-3 -7 -5 -2 -5 12 0 14 2 19 5 13 2 -7 2 -19
0 -25z m11 -93 l0 -30 -8 30 c-4 17 -8 41 -8 55 l0 25 8 -25 c4 -14 8 -38 8
-55z m95 55 c3 -11 1 -20 -4 -20 -5 0 -9 9 -9 20 0 11 2 20 4 20 2 0 6 -9 9
-20z m4 -66 c-9 -9 -28 6 -21 18 4 6 10 6 17 -1 6 -6 8 -13 4 -17z m-692 -4
c-3 -5 -16 -15 -28 -21 l-22 -12 20 21 c21 22 41 30 30 12z m592 -72 c-3 -7
-5 -2 -5 12 0 14 2 19 5 13 2 -7 2 -19 0 -25z m-217 -95 c-6 -21 -8 -12 -8 42
0 64 1 66 8 28 5 -23 5 -54 0 -70z"/>
<path d="M1832 1860 c0 -14 2 -19 5 -12 2 6 2 18 0 25 -3 6 -5 1 -5 -13z"/>
<path d="M1080 1860 c0 -5 5 -10 11 -10 5 0 7 5 4 10 -3 6 -8 10 -11 10 -2 0
-4 -4 -4 -10z"/>
<path d="M1066 1826 c3 -9 10 -16 16 -16 5 0 6 -4 3 -10 -4 -6 1 -7 11 -3 11
4 15 2 11 -4 -3 -5 7 -23 23 -38 24 -23 30 -25 30 -11 0 23 -18 56 -31 56 -6
0 -24 9 -40 21 -22 15 -27 17 -23 5z"/>
<path d="M1672 1820 c0 -14 2 -19 5 -12 2 6 2 18 0 25 -3 6 -5 1 -5 -13z"/>
<path d="M1433 1783 c-7 -2 -13 -12 -13 -20 0 -9 -6 -13 -15 -9 -12 4 -14 0
-9 -22 11 -46 25 -72 18 -34 -4 21 -2 32 6 32 6 0 8 -4 5 -10 -3 -5 -1 -10 5
-10 6 0 8 -10 4 -24 -7 -28 3 -66 17 -66 5 0 9 7 9 15 0 8 6 15 14 15 7 0 20
8 27 17 8 9 9 14 3 10 -7 -4 -10 2 -8 19 3 35 -19 25 -27 -12 -5 -26 -7 -27
-15 -9 -5 11 -9 41 -9 67 0 27 0 48 0 47 0 0 -6 -3 -12 -6z"/>
<path d="M1456 1755 c-3 -8 -3 -22 1 -30 5 -14 8 -14 24 1 14 13 16 20 8 31
-15 17 -25 17 -33 -2z"/>
<path d="M1520 1754 c0 -10 -3 -28 -6 -40 -3 -13 -1 -21 8 -21 14 0 19 60 6
73 -5 4 -8 -1 -8 -12z"/>
<path d="M1566 1755 c4 -8 8 -15 10 -15 2 0 4 7 4 15 0 8 -4 15 -10 15 -5 0
-7 -7 -4 -15z"/>
<path d="M1151 1694 c0 -11 3 -14 6 -6 3 7 2 16 -1 19 -3 4 -6 -2 -5 -13z"/>
<path d="M1318 1676 c-4 -20 -1 -22 16 -18 19 5 20 4 6 -13 -8 -10 -15 -31
-16 -48 -1 -20 1 -25 7 -16 5 8 9 24 9 37 0 12 5 22 10 22 6 0 10 7 10 15 0 8
-4 15 -10 15 -5 0 -10 7 -10 15 0 24 -17 17 -22 -9z"/>
<path d="M1631 1684 c0 -11 3 -14 6 -6 3 7 2 16 -1 19 -3 4 -6 -2 -5 -13z"/>
<path d="M1847 1682 c-19 -20 -22 -69 -7 -92 7 -11 10 -1 10 36 0 27 5 55 12
62 7 7 10 12 7 12 -3 0 -13 -8 -22 -18z"/>
<path d="M1587 1670 c-3 -11 -1 -20 4 -20 5 0 9 9 9 20 0 11 -2 20 -4 20 -2 0
-6 -9 -9 -20z"/>
<path d="M1535 1660 c-10 -11 -22 -17 -28 -13 -6 3 -7 1 -3 -5 8 -13 42 4 50
25 7 18 2 16 -19 -7z"/>
<path d="M1668 1650 c-11 -10 -18 -31 -17 -51 0 -31 1 -32 10 -11 5 13 7 28 3
33 -3 5 -1 9 4 9 9 0 26 30 20 35 -2 1 -11 -5 -20 -15z"/>
<path d="M1776 1654 c-3 -9 -6 -23 -5 -32 0 -11 2 -12 6 -4 14 36 23 -1 24
-105 1 -98 3 -111 11 -78 9 41 5 186 -7 218 -9 21 -21 22 -29 1z"/>
<path d="M1386 1647 c3 -10 9 -15 12 -12 3 3 0 11 -7 18 -10 9 -11 8 -5 -6z"/>
<path d="M1180 1636 c0 -8 5 -18 10 -21 6 -3 10 1 10 9 0 8 -4 18 -10 21 -5 3
-10 -1 -10 -9z"/>
<path d="M1540 1625 c-28 -30 -79 -47 -97 -32 -10 7 -13 -13 -13 -94 0 -76 3
-100 11 -89 8 12 10 9 6 -12 -2 -16 -1 -28 3 -28 4 0 17 47 30 105 13 58 27
108 33 112 5 3 7 -3 4 -13 -15 -50 -18 -112 -7 -119 9 -5 10 -2 6 13 -4 11 -2
23 4 27 6 4 8 16 5 28 -5 17 -4 19 4 7 8 -12 10 -7 9 20 -1 20 7 49 16 65 l17
30 -6 -35 c-16 -110 -17 -115 -5 -100 9 12 10 8 5 -17 -4 -18 -2 -34 4 -38 7
-4 11 19 10 67 0 40 0 82 1 92 2 33 -15 37 -40 11z"/>
<path d="M1725 1640 c3 -5 8 -10 11 -10 2 0 4 5 4 10 0 6 -5 10 -11 10 -5 0
-7 -4 -4 -10z"/>
<path d="M1470 1628 c0 -9 5 -20 10 -23 13 -8 13 5 0 25 -8 13 -10 13 -10 -2z"/>
<path d="M1281 1619 c-1 -9 -4 -31 -8 -49 -4 -22 -3 -31 4 -27 15 9 21 49 12
73 -6 15 -8 15 -8 3z"/>
<path d="M1623 1614 c-7 -7 -13 -21 -13 -31 0 -15 3 -14 16 5 18 26 15 47 -3
26z"/>
<path d="M1676 1604 c-8 -20 -4 -25 11 -16 7 4 9 13 4 21 -6 10 -10 9 -15 -5z"/>
<path d="M1827 1538 c8 -44 13 -48 13 -10 0 17 -4 34 -10 37 -6 4 -7 -6 -3
-27z"/>
<path d="M1752 1480 c-6 -44 -9 -86 -6 -93 3 -8 0 -34 -5 -60 -13 -55 -8 -71
24 -85 l25 -12 -6 83 c-3 45 -5 119 -4 165 0 45 -3 82 -8 82 -5 0 -14 -36 -20
-80z m15 -92 c-3 -8 -6 -5 -6 6 -1 11 2 17 5 13 3 -3 4 -12 1 -19z m0 -55 c-3
-10 -5 -4 -5 12 0 17 2 24 5 18 2 -7 2 -21 0 -30z m-10 -55 c-3 -7 -5 -2 -5
12 0 14 2 19 5 13 2 -7 2 -19 0 -25z"/>
<path d="M1877 1553 c-4 -3 -7 -22 -7 -42 0 -24 -3 -31 -9 -23 -7 11 -9 11
-14 -1 -3 -9 0 -14 8 -13 21 3 26 10 31 50 4 36 3 41 -9 29z"/>
<path d="M1708 1520 c-9 -34 -6 -72 5 -61 5 5 7 26 5 47 -3 33 -5 35 -10 14z"/>
<path d="M1531 1474 c0 -11 3 -14 6 -6 3 7 2 16 -1 19 -3 4 -6 -2 -5 -13z"/>
<path d="M1411 1380 c0 -58 -5 -120 -10 -138 -5 -17 -6 -32 -2 -32 15 0 29
134 22 205 l-8 70 -2 -105z"/>
<path d="M1481 1404 c0 -11 3 -14 6 -6 3 7 2 16 -1 19 -3 4 -6 -2 -5 -13z"/>
<path d="M1513 1408 c-6 -9 -2 -21 14 -37 l23 -24 -1 34 c0 19 -3 28 -6 22 -2
-7 -9 -13 -15 -13 -6 0 -8 7 -4 15 7 18 2 19 -11 3z"/>
<path d="M1811 1334 c0 -11 3 -14 6 -6 3 7 2 16 -1 19 -3 4 -6 -2 -5 -13z"/>
<path d="M1491 1333 c-1 -6 -4 -20 -7 -30 -5 -17 -5 -17 6 0 6 10 9 23 6 30
-3 9 -5 9 -5 0z"/>
<path d="M1522 1300 c0 -14 2 -19 5 -12 2 6 2 18 0 25 -3 6 -5 1 -5 -13z"/>
<path d="M1769 1140 l36 -69 7 32 c6 28 2 37 -30 70 -20 20 -39 37 -43 37 -3
0 10 -31 30 -70z"/>
<path d="M1490 1180 c-1 -8 -3 -27 -5 -42 -2 -16 1 -28 6 -28 5 0 9 -7 9 -17
0 -9 2 -14 5 -11 3 3 1 29 -4 59 -5 30 -9 47 -11 39z"/>
<path d="M1430 1101 c0 -5 5 -11 11 -13 7 -2 14 -37 16 -83 3 -44 7 -87 10
-95 3 -8 5 -31 5 -50 -1 -19 1 -28 5 -20 3 8 10 18 15 21 6 4 6 21 -1 45 -14
49 -15 142 -2 129 5 -6 11 -26 14 -45 3 -26 4 -21 5 19 2 50 1 53 -19 48 -17
-5 -20 -2 -16 14 3 10 2 17 -3 14 -4 -3 -10 2 -14 10 -6 16 -26 21 -26 6z"/>
<path d="M1382 1015 c0 -16 2 -22 5 -12 2 9 2 23 0 30 -3 6 -5 -1 -5 -18z"/>
<path d="M1400 974 c0 -8 5 -12 10 -9 6 4 8 11 5 16 -9 14 -15 11 -15 -7z"/>
<path d="M1427 948 c-3 -24 -9 -54 -12 -68 -6 -23 -5 -23 8 -8 8 10 17 14 21
11 6 -7 -3 97 -9 105 -1 1 -5 -17 -8 -40z"/>
<path d="M1510 910 c0 -8 5 -22 10 -30 9 -13 10 -13 10 0 0 8 -5 22 -10 30 -9
13 -10 13 -10 0z"/>
<path d="M1442 850 c0 -14 2 -19 5 -12 2 6 2 18 0 25 -3 6 -5 1 -5 -13z"/>
<path d="M1451 774 c0 -11 3 -14 6 -6 3 7 2 16 -1 19 -3 4 -6 -2 -5 -13z"/>
<path d="M1491 764 c0 -11 3 -14 6 -6 3 7 2 16 -1 19 -3 4 -6 -2 -5 -13z"/>
<path d="M1450 731 c0 -11 4 -22 9 -25 4 -3 6 6 3 19 -5 30 -12 33 -12 6z"/>
<path d="M1681 758 c-1 -41 7 -68 20 -68 9 0 2 50 -12 85 -6 16 -8 12 -8 -17z"/>
<path d="M1616 755 c4 -8 10 -15 15 -15 4 0 6 7 3 15 -4 8 -10 15 -15 15 -4 0
-6 -7 -3 -15z"/>
<path d="M1646 675 c4 -8 8 -15 10 -15 2 0 4 7 4 15 0 8 -4 15 -10 15 -5 0 -7
-7 -4 -15z"/>
</g>
</svg>
